<svg xmlns="http://www.w3.org/2000/svg" viewBox="0 0 1024 640" fill="none">
  <!-- Meta Infinity Logo -->
  <path d="M256 80C358.4 80 448 169.6 448 272C448 374.4 358.4 464 256 464C204.8 464 156.8 441.6 121.6 406.4C86.4 371.2 64 323.2 64 272C64 220.8 86.4 172.8 121.6 137.6C156.8 102.4 204.8 80 256 80Z" fill="#0866FF"/>
  
  <path d="M768 80C870.4 80 960 169.6 960 272C960 374.4 870.4 464 768 464C716.8 464 668.8 441.6 633.6 406.4C598.4 371.2 576 323.2 576 272C576 220.8 598.4 172.8 633.6 137.6C668.8 102.4 716.8 80 768 80Z" fill="#0866FF"/>
  
  <!-- Center connection -->
  <path d="M448 272C448 323.2 470.4 371.2 505.6 406.4C540.8 441.6 588.8 464 640 464C691.2 464 739.2 441.6 774.4 406.4C809.6 371.2 832 323.2 832 272C832 220.8 809.6 172.8 774.4 137.6C739.2 102.4 691.2 80 640 80C588.8 80 540.8 102.4 505.6 137.6C470.4 172.8 448 220.8 448 272Z" fill="#0866FF" opacity="0.3"/>
  
  <!-- Inner cutouts for infinity shape -->
  <ellipse cx="256" cy="272" rx="120" ry="160" fill="#000000"/>
  <ellipse cx="768" cy="272" rx="120" ry="160" fill="#000000"/>
</svg>
